<svg xmlns="http://www.w3.org/2000/svg" width="48" height="48" viewBox="0 0 48 48">
    <g id="icon_discord" transform="translate(-273 -967)">
        <path fill="#fff" id="Union_1" data-name="Union 1" d="M7.028,40.972A24,24,0,0,1,40.972,7.028,24,24,0,0,1,7.028,40.972Zm7.2-23.871a27.524,27.524,0,0,0-3.242,12.418c.018.031,1.838,3.079,6.726,3.195l.01-.014c.18-.233.814-1.048,1.436-1.759a7.177,7.177,0,0,1-3.846-2.483l.925.47.537.22a17.308,17.308,0,0,0,7.165,1.688,18.62,18.62,0,0,0,2.97-.252l.065-.014a16.589,16.589,0,0,0,3.169-.931c.193-.1.4-.194.614-.3a17.455,17.455,0,0,0,1.9-1.007l0,.005a7.338,7.338,0,0,1-3.961,2.479c.588.815,1.422,1.76,1.43,1.768a9.075,9.075,0,0,0,6.71-2.846c.128-.131.2-.212.234-.212a.012.012,0,0,1,.009,0,27.539,27.539,0,0,0-3.262-12.418,10.868,10.868,0,0,0-6.154-2.229l-.329.324a14.7,14.7,0,0,1,5.526,2.719,20.2,20.2,0,0,0-16.582-.711c-.829.354-1.318.591-1.322.594l0-.005a13.238,13.238,0,0,1,5.764-2.713l-.242-.238h-.068A11.037,11.037,0,0,0,14.228,17.1Zm11.535,7.934a2.332,2.332,0,0,1,2.282-2.366v-.005a2.367,2.367,0,1,1-2.282,2.372Zm-8.168,0a2.326,2.326,0,0,1,2.281-2.366l.007-.005A2.367,2.367,0,1,1,17.6,25.034Z" transform="translate(273 967)" />
    </g>
</svg>
