<?xml version="1.0" standalone="no"?>
<!DOCTYPE svg PUBLIC "-//W3C//DTD SVG 20010904//EN"
 "http://www.w3.org/TR/2001/REC-SVG-20010904/DTD/svg10.dtd">
<svg version="1.0" xmlns="http://www.w3.org/2000/svg"
 width="260.000000pt" height="260.000000pt" viewBox="0 0 260.000000 260.000000"
 preserveAspectRatio="xMidYMid meet">
<metadata>
Created by potrace 1.14, written by Peter Selinger 2001-2017
</metadata>
<g transform="translate(0.000000,260.000000) scale(0.100000,-0.100000)"
fill="#000000" stroke="none">
<path d="M26 2579 l-26 -20 0 -165 0 -164 35 -65 c19 -36 32 -72 29 -80 -3 -8
3 -27 14 -42 10 -15 19 -35 20 -43 0 -8 4 -26 7 -40 l7 -25 -21 25 c-20 24
-21 25 -21 3 0 -12 9 -43 21 -69 l20 -48 -22 19 -22 20 12 -23 c7 -12 13 -60
13 -105 1 -45 4 -73 8 -62 6 15 9 9 15 -25 9 -57 40 -118 72 -143 23 -18 23
-20 7 -38 -9 -11 -22 -19 -28 -19 -6 0 -5 5 2 12 17 17 15 41 -2 35 -9 -4 -17
1 -19 11 -3 11 -6 7 -7 -10 -1 -16 -3 -34 -4 -40 -1 -7 2 -16 6 -19 5 -3 -3
-15 -16 -28 -20 -19 -24 -20 -29 -7 -4 9 -1 16 6 16 13 1 -52 39 -67 40 -9 0
-4 -53 9 -85 6 -15 5 -17 -3 -10 -6 6 -18 28 -25 50 -13 37 -14 22 -16 -174
-2 -209 -1 -216 25 -287 18 -49 30 -71 39 -68 11 5 11 12 -1 39 -18 44 -17 55
1 31 20 -27 19 -17 -5 39 -11 26 -20 49 -20 53 0 11 57 -84 65 -107 3 -12 25
-61 48 -109 23 -48 43 -91 46 -96 2 -5 -2 -5 -9 -1 -9 5 -11 4 -6 -4 4 -6 11
-9 16 -6 11 7 33 -32 25 -45 -3 -5 0 -12 6 -16 8 -5 10 -2 5 7 -4 8 0 5 8 -5
9 -11 16 -25 16 -30 0 -6 -5 -4 -10 4 -16 25 -11 6 10 -43 11 -26 22 -70 24
-99 2 -29 4 -61 5 -72 1 -16 3 -16 20 5 18 22 19 22 18 4 -1 -11 4 -20 11 -19
6 1 20 2 30 2 22 2 23 32 3 56 -8 9 -10 16 -6 16 8 0 51 -52 49 -60 -1 -3 7
-22 17 -42 11 -21 19 -58 19 -85 l0 -48 26 38 c14 21 23 45 20 52 -10 27 15
27 41 1 24 -25 50 -36 39 -17 -3 5 1 12 10 15 20 8 64 -22 64 -43 -1 -14 -3
-13 -15 3 -21 28 -29 13 -15 -29 11 -34 13 -35 25 -17 20 27 30 72 16 72 -6 0
-11 8 -11 18 0 18 -34 57 -49 57 -3 0 -5 4 -3 8 1 5 -2 6 -7 3 -11 -7 -42 34
-35 46 3 4 -2 8 -10 8 -9 0 -22 13 -31 30 -18 35 -19 44 -3 34 6 -4 8 -3 5 2
-3 5 -20 11 -38 12 l-33 3 24 -28 c14 -15 17 -21 8 -14 -10 7 -18 10 -18 5 0
-5 -4 -2 -10 6 -5 8 -13 11 -17 6 -4 -4 2 -15 15 -23 12 -9 22 -21 22 -27 -1
-6 -25 16 -55 49 -30 32 -52 61 -50 63 2 3 16 -10 31 -27 33 -39 41 -34 18 11
l-17 33 26 -23 c19 -18 27 -20 33 -11 4 8 -1 18 -14 27 -17 11 -22 24 -22 58
0 48 13 62 37 42 12 -9 15 -9 9 0 -10 16 16 16 33 -1 11 -9 13 -9 7 1 -9 15 6
16 22 0 12 -12 52 -19 52 -8 0 12 -23 28 -35 24 -6 -3 -18 2 -25 11 -7 8 -9
15 -4 15 5 0 15 4 23 9 11 7 10 15 -10 42 -13 19 -31 43 -41 53 -10 11 -18 22
-19 25 -5 36 -4 51 6 65 11 14 13 13 18 -11 4 -17 18 -35 36 -45 17 -9 31 -22
31 -28 0 -6 -4 -8 -10 -5 -6 3 -7 -1 -3 -10 4 -12 8 -13 13 -5 10 16 22 -3 15
-22 -3 -8 1 -21 10 -28 19 -16 19 -30 0 -30 -19 0 -19 -19 0 -43 12 -16 11
-23 -6 -50 -22 -38 -25 -54 -5 -38 11 10 17 8 25 -6 9 -16 10 -14 11 11 0 22
3 27 11 19 6 -6 18 -9 26 -6 8 3 29 -7 46 -23 l32 -29 -27 31 c-34 37 -35 48
-5 38 22 -7 22 -6 3 15 -25 28 -9 27 22 -1 l25 -23 -18 28 c-23 36 -13 34 31
-7 24 -22 42 -32 55 -29 15 4 17 8 8 19 -8 9 -16 11 -23 5 -8 -7 -17 0 -28 20
-19 33 -19 33 19 17 15 -6 33 -12 38 -14 6 -1 19 -6 29 -10 16 -6 18 -4 13 9
-6 16 -4 16 21 2 31 -17 56 -33 93 -57 14 -10 36 -16 47 -13 12 2 24 -1 27 -6
4 -5 10 -7 15 -4 5 3 18 -2 29 -12 11 -10 37 -31 58 -48 21 -16 51 -45 68 -64
25 -29 27 -33 7 -22 -12 6 -22 7 -22 2 0 -5 6 -11 13 -14 8 -3 6 -11 -8 -27
l-20 -23 25 7 c39 12 123 14 143 4 31 -16 38 -4 13 23 l-24 26 32 34 c18 19
47 45 65 59 18 14 47 36 64 50 17 14 27 18 22 10 -7 -12 -6 -13 6 -4 8 6 22
10 32 9 10 -2 37 7 60 20 33 19 44 22 57 12 13 -10 13 -10 2 5 -12 15 -10 19
17 32 27 14 30 14 25 1 -4 -8 -11 -15 -17 -15 -6 0 -8 -3 -5 -6 4 -3 20 2 37
10 17 9 33 16 36 16 21 -1 25 1 20 9 -3 5 0 13 6 17 8 5 9 3 4 -6 -5 -9 -2
-10 14 -5 20 6 21 6 4 -24 -12 -20 -21 -27 -29 -20 -7 6 -16 4 -24 -6 -23 -28
49 -10 83 21 l31 29 -19 -30 -18 -30 25 23 c31 28 47 29 22 1 -19 -21 -19 -22
4 -15 26 9 27 4 6 -32 l-16 -27 21 24 c11 13 27 21 35 18 7 -3 19 0 25 6 8 8
11 2 12 -24 0 -18 3 -28 6 -21 2 6 9 10 14 7 5 -4 6 2 2 12 -6 16 -5 17 12 3
17 -14 17 -13 10 10 -4 14 -13 32 -20 40 -11 12 -11 18 1 34 18 26 18 46 -1
46 -21 0 -19 9 7 39 18 19 18 22 4 11 -18 -13 -19 -13 -14 2 8 21 -50 52 -68
37 -9 -7 -15 -5 -22 7 -8 14 -12 13 -36 -12 -14 -16 -26 -25 -26 -20 0 4 -23
-11 -50 -34 -28 -23 -48 -46 -45 -50 3 -5 1 -12 -5 -15 -6 -4 -9 -1 -8 7 3 13
-1 13 -75 4 -22 -3 -35 -1 -32 5 9 14 -3 11 -32 -8 -18 -12 -24 -13 -19 -5 7
11 4 12 -10 4 -19 -10 -26 -12 -43 -12 -5 0 -12 -9 -16 -19 -4 -13 -12 -17
-24 -14 -13 3 -23 -2 -31 -16 -6 -12 -15 -19 -20 -16 -5 3 -27 -2 -50 -11 -30
-12 -38 -19 -28 -25 21 -14 41 -10 34 6 -3 9 0 15 8 15 32 0 17 -29 -46 -89
l-67 -63 -59 56 c-63 60 -83 95 -54 97 10 0 4 5 -13 11 -16 6 -37 17 -46 24
-8 8 -23 14 -33 14 -9 0 -15 4 -12 9 6 10 -14 20 -53 27 -22 5 -23 3 -10 -13
13 -17 13 -17 -7 -1 -11 10 -26 18 -32 18 -7 0 -12 5 -12 10 0 6 -5 10 -11 10
-5 0 -8 -4 -4 -10 5 -9 -37 -6 -95 6 -14 3 -35 6 -48 8 -12 2 -33 15 -47 30
-31 33 -24 33 23 0 l37 -26 -40 35 c-22 20 -41 34 -44 31 -2 -2 -10 1 -18 7
-7 6 -13 8 -13 5 0 -4 -9 -2 -19 4 -13 7 -22 7 -26 0 -8 -13 -25 -13 -25 1 0
5 5 7 12 3 7 -4 8 -3 4 4 -5 8 -13 8 -31 0 -13 -6 -22 -15 -18 -21 4 -6 1 -7
-6 -2 -7 4 -21 26 -31 50 -10 24 -23 46 -29 50 -6 3 -9 10 -6 15 3 5 -3 15
-13 22 -10 7 -28 28 -41 46 -13 18 -29 31 -35 29 -17 -7 -51 20 -51 40 0 9
-25 36 -55 59 -37 28 -57 52 -63 73 -4 17 -12 29 -17 26 -6 -4 -10 6 -10 22
-1 27 -1 27 -16 8 -13 -17 -16 -18 -24 -5 -5 8 -10 11 -10 6 0 -5 -7 -3 -15 4
-13 11 -14 10 -9 -4 10 -26 -10 -19 -44 17 -34 35 -44 59 -14 36 16 -13 16
-12 2 5 -23 29 -21 47 12 89 27 34 35 38 68 36 22 -2 45 3 55 11 15 12 16 11
11 -13 -16 -75 -17 -82 -6 -67 5 8 10 24 10 36 0 11 7 29 16 40 15 18 15 18 9
-4 -4 -12 -3 -22 2 -20 19 5 93 -15 104 -28 6 -8 41 -35 78 -61 36 -26 111
-89 166 -141 101 -95 166 -148 150 -122 -5 8 7 4 27 -8 19 -12 37 -20 39 -17
13 12 67 14 72 2 3 -9 16 -12 36 -9 26 4 29 7 21 22 -14 27 -12 34 5 20 18
-15 20 1 3 18 -9 9 -9 12 2 12 7 0 10 3 7 7 -4 3 1 12 11 19 16 12 16 13 -3
14 -20 1 -20 1 0 16 17 13 18 16 5 25 -13 9 -12 10 2 6 9 -3 19 -1 22 6 3 9 7
9 14 -1 5 -7 15 -14 23 -16 32 -5 54 -29 83 -91 11 -22 11 -32 3 -37 -8 -5 -6
-8 6 -8 10 0 15 -5 12 -10 -4 -6 -11 -8 -16 -5 -5 4 -16 2 -26 -3 -13 -8 -8
-11 25 -17 37 -6 42 -10 48 -41 7 -39 22 -53 36 -33 6 10 7 7 3 -10 -5 -16 -4
-21 4 -17 7 4 11 -1 11 -13 0 -24 10 -27 28 -9 9 9 12 9 12 0 0 -7 5 -12 10
-12 6 0 10 9 10 21 0 11 4 18 9 15 10 -7 44 29 47 50 5 34 14 43 50 50 29 5
33 9 20 16 -9 5 -20 7 -25 3 -5 -3 -12 -1 -16 5 -3 6 4 10 17 11 19 0 20 2 5
7 -16 7 -16 9 3 42 11 19 23 43 26 53 4 9 13 17 20 17 8 0 14 5 14 11 0 5 4 8
9 4 5 -3 17 3 27 12 12 12 19 14 21 6 3 -7 12 -9 21 -6 14 6 15 4 4 -9 -10
-13 -10 -17 5 -22 15 -6 15 -9 3 -17 -11 -8 -12 -12 -2 -16 6 -2 10 -9 6 -14
-3 -5 0 -9 6 -9 7 0 7 -7 -1 -22 -11 -21 -11 -22 4 -9 19 15 22 8 6 -20 -9
-18 -7 -19 25 -17 20 1 36 6 36 10 0 8 60 1 68 -7 3 -2 19 3 36 12 17 9 37 18
45 19 14 3 40 25 156 135 93 89 243 195 294 209 26 7 39 15 35 22 -4 6 -1 9 7
6 8 -3 15 -13 17 -24 6 -41 13 -66 17 -62 3 3 1 25 -4 50 -6 37 -5 45 5 41 8
-3 14 -8 14 -12 0 -4 18 -6 39 -4 35 3 43 -1 70 -35 28 -36 34 -62 18 -78 -4
-4 -7 -12 -7 -18 0 -6 5 -4 10 4 5 8 10 10 10 4 0 -13 -59 -74 -72 -74 -4 0
-4 8 -1 18 6 14 4 15 -9 5 -8 -7 -18 -10 -21 -6 -4 3 -7 1 -7 -5 0 -20 -16
-13 -27 10 -9 21 -10 20 -11 -11 0 -19 -6 -39 -12 -45 -8 -8 -9 -6 -5 9 6 16
5 17 -4 5 -6 -8 -11 -23 -11 -32 0 -9 -16 -30 -36 -45 -62 -48 -85 -71 -82
-81 2 -6 -6 -18 -17 -26 -19 -15 -19 -16 -1 -9 13 4 17 3 12 -5 -4 -7 -13 -12
-20 -12 -7 0 -21 -9 -31 -20 -10 -11 -23 -20 -28 -20 -6 0 0 13 14 28 13 15 6
10 -16 -13 -22 -22 -54 -51 -70 -64 -28 -21 -28 -22 -3 -7 16 9 28 12 28 6 0
-5 -4 -10 -10 -10 -5 0 -17 -16 -25 -36 -18 -43 -18 -47 -5 -39 6 3 10 1 10
-5 0 -6 5 -8 11 -4 8 4 7 9 -2 15 -11 8 -9 13 11 29 49 37 59 50 55 63 -3 7 9
21 27 31 18 10 42 27 53 37 12 11 26 15 33 10 9 -6 7 -12 -9 -27 -12 -10 -23
-18 -25 -16 -2 1 -7 2 -11 2 -5 0 -1 -4 7 -10 22 -14 5 -23 -19 -10 -31 16
-40 5 -37 -41 6 -77 20 -70 83 35 6 11 21 20 32 21 21 2 21 -1 -13 -50 l-20
-30 24 20 c27 24 21 10 -29 -58 -19 -26 -37 -45 -39 -42 -3 3 4 19 16 35 24
32 28 45 12 35 -6 -4 -25 -31 -42 -61 -20 -37 -34 -52 -41 -45 -6 6 -3 21 11
45 19 32 19 46 0 46 -4 0 -8 -6 -8 -13 0 -7 -9 -18 -20 -25 -11 -7 -20 -18
-20 -26 0 -8 -8 -17 -17 -21 -16 -6 -16 -8 4 -25 20 -16 21 -19 8 -30 -9 -7
-18 -10 -22 -7 -7 7 -33 -11 -33 -23 0 -11 39 -5 52 8 16 16 31 15 22 0 -6
-10 -4 -10 7 0 17 16 43 16 33 0 -5 -9 -2 -8 10 1 13 11 20 11 29 2 9 -9 9
-14 -3 -21 -10 -7 -11 -10 -2 -10 21 0 15 -64 -8 -78 -12 -7 -18 -17 -14 -23
4 -7 15 -2 30 12 13 12 24 18 24 13 0 -10 -26 -51 -46 -71 -14 -15 -25 -7 -17
13 11 29 -27 13 -43 -19 -27 -51 -76 -107 -88 -100 -6 3 -5 0 2 -8 11 -12 17
-10 38 15 14 15 27 26 29 24 3 -2 -17 -24 -43 -49 -26 -24 -41 -37 -34 -30 12
15 18 40 5 28 -3 -4 -13 -1 -21 6 -10 7 -13 8 -9 1 4 -7 0 -17 -8 -24 -8 -7
-15 -21 -15 -31 0 -11 -5 -19 -11 -19 -14 0 -4 -45 16 -72 12 -18 14 -17 24
15 6 19 9 40 7 48 -3 8 9 25 27 39 29 22 30 22 13 2 -19 -22 -19 -22 0 -22 16
0 17 -2 4 -10 -13 -9 -13 -10 0 -10 8 0 24 11 34 25 23 30 31 32 33 5 1 -10
13 -36 27 -57 l26 -38 0 45 c0 25 9 64 19 87 11 23 17 43 15 45 -2 3 13 20 33
39 21 19 29 24 18 11 -29 -35 -27 -59 8 -66 38 -8 45 -1 29 27 -10 17 -7 16
12 -5 l25 -27 5 27 c3 15 5 46 5 69 -1 28 9 64 29 108 31 65 36 89 8 37 -8
-15 -15 -22 -16 -17 0 14 36 67 45 65 3 -1 10 2 13 6 4 4 1 4 -6 0 -18 -10
-15 2 9 35 25 35 104 206 101 220 0 3 10 18 23 35 l23 29 -5 -28 c-3 -15 -9
-30 -14 -33 -5 -3 -9 -10 -9 -17 0 -6 7 -2 15 9 18 24 19 13 1 -31 -12 -29
-12 -34 0 -39 8 -3 14 -4 14 -3 0 1 11 34 25 72 25 67 26 78 24 278 -1 183 -3
205 -16 190 -12 -15 -14 -15 -10 -2 10 32 -8 42 -42 25 -17 -9 -30 -20 -27
-24 3 -5 1 -13 -3 -20 -5 -9 -14 -5 -31 13 -14 15 -18 25 -11 25 11 0 11 3 0
17 -10 12 -11 15 -1 9 10 -6 11 -1 6 21 -8 34 -14 42 -14 20 0 -10 -5 -14 -15
-11 -18 7 -20 -17 -3 -34 7 -7 8 -12 2 -12 -6 0 -18 8 -27 18 -16 17 -15 20
17 49 33 29 65 104 67 157 0 21 1 21 8 1 5 -12 8 8 9 55 0 41 5 89 11 105 l11
30 -20 -24 c-25 -30 -25 -21 0 29 11 22 20 51 20 66 l0 26 -20 -23 c-16 -20
-19 -21 -20 -7 0 9 5 20 11 23 6 4 8 13 5 20 -2 7 3 23 11 35 9 13 20 42 24
67 5 24 20 60 34 80 24 37 25 42 25 210 l0 172 -26 20 c-24 19 -40 21 -158 21
-123 0 -218 -9 -258 -25 -13 -5 -18 -2 -18 9 0 13 -12 16 -71 16 -67 0 -75 -3
-135 -42 -35 -24 -64 -46 -64 -49 0 -30 104 0 115 34 4 9 11 15 16 12 5 -4 9
-1 9 6 0 7 10 3 24 -10 l23 -22 31 26 c33 28 51 33 31 9 -16 -20 -65 -45 -72
-37 -12 11 -137 -77 -137 -98 0 -4 -23 -41 -51 -83 -69 -102 -138 -141 -152
-85 -3 10 -1 17 4 13 5 -3 9 -1 9 5 0 20 -23 24 -36 6 -22 -30 -25 -12 -6 27
37 72 166 217 231 259 25 16 39 29 32 29 -30 0 -105 -67 -184 -163 -108 -133
-112 -139 -130 -222 -9 -38 -21 -94 -27 -122 -7 -29 -16 -51 -20 -48 -5 3 -23
-12 -42 -34 -18 -21 -43 -41 -55 -45 -26 -8 -75 -104 -94 -181 -6 -28 -16 -59
-20 -70 -5 -11 -13 -33 -18 -50 -5 -16 -12 -39 -17 -50 -7 -19 -6 -19 12 -5
18 14 18 14 5 -3 -8 -9 -16 -15 -19 -12 -3 3 -11 0 -19 -6 -9 -8 -17 -8 -25
-1 -7 6 -16 10 -20 9 -3 -1 -10 2 -15 7 -5 5 -3 6 5 2 16 -9 8 29 -18 90 -10
23 -21 60 -25 82 -10 60 -76 185 -101 192 -11 3 -36 22 -54 43 -21 24 -36 34
-40 27 -4 -6 -15 28 -24 77 -37 186 -34 180 -205 383 -39 46 -117 107 -126 98
-3 -3 13 -18 36 -33 23 -15 53 -39 67 -54 40 -42 129 -155 151 -192 24 -38 28
-64 6 -35 -14 19 -45 16 -45 -4 0 -6 4 -9 9 -6 5 4 7 -3 4 -13 -7 -29 -29 -33
-63 -13 -29 18 -90 87 -90 103 0 4 -12 21 -26 38 -14 17 -23 31 -19 31 4 0 2
7 -5 15 -7 8 -16 12 -21 9 -5 -3 -6 1 -4 8 6 14 -101 85 -112 75 -7 -8 -56 17
-72 37 -20 24 -2 19 31 -9 22 -18 34 -23 43 -15 6 5 16 6 20 2 5 -4 5 -2 1 5
-3 6 -2 14 4 18 5 3 10 1 10 -5 0 -6 5 -8 10 -5 6 3 10 1 10 -4 0 -19 76 -60
99 -54 11 3 21 8 21 12 0 3 -29 25 -64 49 -60 39 -68 42 -135 42 -59 0 -71 -3
-71 -16 0 -12 -5 -14 -17 -9 -36 15 -121 24 -254 24 -123 1 -139 -1 -163 -20z
m565 -86 c13 -16 12 -17 -3 -4 -10 7 -18 15 -18 17 0 8 8 3 21 -13z m-53 -70
c8 -7 18 -11 23 -8 5 4 9 -1 9 -9 0 -8 7 -22 16 -30 12 -12 12 -16 2 -16 -10
0 -10 -2 1 -9 8 -5 10 -14 6 -21 -5 -9 -4 -11 4 -6 10 6 37 -18 87 -77 6 -7
17 -30 24 -51 10 -33 10 -40 -6 -57 -16 -17 -19 -18 -34 -4 -9 9 -24 13 -32
10 -9 -4 -18 1 -22 10 -4 11 -2 14 7 9 6 -3 0 5 -15 18 -15 14 -25 27 -23 30
3 3 -4 13 -15 23 -24 21 -26 40 -5 31 20 -7 19 4 -5 34 -17 21 -19 21 -14 5 5
-17 2 -16 -15 5 -20 23 -51 77 -51 88 0 2 7 -2 17 -9 15 -13 15 -12 2 8 -7 13
-16 18 -20 12 -3 -6 -14 1 -23 16 -10 15 -15 29 -12 33 3 3 6 1 6 -5 0 -6 7
-14 16 -17 15 -6 15 -4 0 19 l-16 24 37 -22 c21 -12 44 -27 51 -34z m1595 30
c-10 -17 -11 -23 -3 -15 23 21 31 13 14 -13 -9 -14 -20 -23 -24 -20 -4 3 -14
-3 -21 -13 -13 -15 -12 -16 4 -3 26 20 21 1 -15 -55 -18 -28 -33 -43 -36 -36
-2 9 -9 4 -18 -13 -18 -35 -18 -40 1 -25 22 19 18 -4 -5 -25 -11 -10 -17 -21
-15 -25 3 -5 -7 -18 -22 -30 -16 -12 -22 -18 -15 -15 12 6 12 3 2 -15 -10 -18
-14 -20 -21 -9 -5 8 -9 10 -9 5 0 -5 -6 -3 -14 3 -11 9 -16 9 -22 0 -4 -8 -3
-9 4 -5 7 4 12 3 12 -2 0 -19 -14 -21 -32 -5 -18 16 -25 43 -10 43 4 0 8 11 8
25 1 13 8 30 15 38 8 7 29 30 47 51 18 20 37 34 42 31 6 -4 7 1 3 11 -5 14 -3
16 13 11 17 -6 17 -6 3 6 -12 9 -13 15 -5 25 36 40 60 61 66 57 3 -2 19 7 36
20 37 31 38 31 17 -2z m-1923 -65 c9 -16 16 -41 14 -55 -1 -15 2 -35 7 -45 9
-16 7 -17 -17 -8 -15 6 -29 9 -31 7 -2 -3 5 -28 16 -56 13 -36 15 -49 6 -41
-11 9 -12 7 -8 -10 3 -11 12 -19 21 -18 8 2 17 -3 19 -10 3 -8 -1 -10 -13 -5
-15 6 -14 1 6 -27 13 -18 18 -31 11 -29 -7 3 -20 18 -29 34 -9 17 -20 32 -24
33 -5 2 -8 8 -8 14 0 6 -8 17 -17 25 -10 8 -12 12 -5 8 6 -3 12 -1 12 4 0 6
-4 11 -8 11 -4 0 -14 17 -21 38 -8 20 -16 43 -19 51 -3 9 -1 12 6 7 8 -4 12 0
12 11 0 15 2 16 10 3 14 -23 24 13 10 39 -7 13 -7 21 -1 21 6 0 8 6 5 13 -10
26 28 13 46 -15z m269 -43 c28 -41 46 -75 39 -75 -7 0 -18 8 -24 18 -36 59
-75 132 -71 132 3 0 28 -34 56 -75z m1694 58 c-3 -10 -11 -25 -18 -33 -7 -8
-23 -34 -35 -57 -20 -37 -40 -55 -40 -38 0 7 32 58 40 65 3 3 16 22 29 43 24
40 34 48 24 20z m263 1 c-3 -7 0 -15 7 -17 9 -3 9 -8 -1 -20 -10 -12 -11 -21
-3 -34 8 -13 10 -14 11 -3 0 11 3 11 13 2 13 -14 18 -64 5 -56 -4 3 -8 -2 -8
-10 0 -28 -1 -31 -18 -50 -13 -15 -14 -18 -2 -12 9 4 8 2 -2 -7 -10 -8 -18
-18 -18 -23 0 -14 -51 -86 -57 -80 -3 3 4 20 16 39 22 35 28 62 12 53 -5 -3 0
17 10 45 11 28 18 53 16 56 -2 2 -16 -1 -31 -7 -24 -9 -26 -8 -17 8 5 9 8 28
7 42 -3 39 25 87 51 87 8 0 12 -6 9 -13z m-1887 -168 c13 -14 21 -32 18 -43
-4 -16 -6 -16 -12 4 -4 13 -12 20 -19 16 -6 -3 -8 -2 -3 2 4 5 0 17 -10 27
-24 27 0 22 26 -6z m425 -73 c17 -76 20 -100 10 -91 -8 9 -44 149 -44 173 1
35 16 -3 34 -82z m677 24 c-5 -17 -15 -52 -21 -76 -18 -69 -23 -40 -5 35 8 38
18 80 22 94 7 25 7 25 11 2 2 -12 -1 -37 -7 -55z m413 36 c-13 -20 -22 -44
-19 -52 3 -9 3 -12 -1 -9 -3 4 -15 -3 -25 -15 -15 -18 -18 -19 -19 -6 0 9 7
19 15 23 8 3 15 14 15 24 0 21 36 72 50 72 5 0 -2 -17 -16 -37z m-1546 -24
c19 -30 11 -32 -11 -3 -10 13 -14 24 -10 24 5 0 14 -9 21 -21z m1579 3 c-10
-10 -17 -23 -17 -29 0 -12 -79 -133 -86 -133 -6 0 13 36 45 85 15 22 33 52 40
68 8 15 19 27 24 27 6 0 3 -8 -6 -18z m-1497 -59 c0 -13 -3 -13 -15 -3 -8 7
-15 16 -15 21 0 5 7 6 15 3 8 -4 15 -13 15 -21z m1772 5 c-7 -7 -12 -8 -12 -2
0 6 3 14 7 17 3 4 9 5 12 2 2 -3 -1 -11 -7 -17z m-1782 -70 c12 -21 19 -38 17
-38 -6 0 -77 108 -77 117 1 11 35 -35 60 -79z m204 56 c3 -8 2 -12 -4 -9 -6 3
-10 10 -10 16 0 14 7 11 14 -7z m136 -9 c0 -8 -2 -15 -4 -15 -2 0 -6 7 -10 15
-3 8 -1 15 4 15 6 0 10 -7 10 -15z m754 0 c-4 -8 -8 -15 -10 -15 -2 0 -4 7 -4
15 0 8 4 15 10 15 5 0 7 -7 4 -15z m-774 -16 c0 -6 -4 -7 -10 -4 -5 3 -10 11
-10 16 0 6 5 7 10 4 6 -3 10 -11 10 -16z m791 -2 c-10 -9 -11 -8 -5 6 3 10 9
15 12 12 3 -3 0 -11 -7 -18z m-791 -38 c15 -28 5 -23 -15 7 -9 15 -12 23 -6
20 6 -4 16 -16 21 -27z m794 6 c-9 -14 -18 -25 -21 -25 -5 0 5 18 20 38 17 22
18 13 1 -13z m651 -5 c3 -6 -1 -7 -9 -4 -18 7 -21 14 -7 14 6 0 13 -4 16 -10z
m20 -41 c4 -5 -5 -28 -19 -49 -14 -22 -26 -44 -26 -49 0 -5 -4 -13 -10 -16 -6
-4 -7 1 -3 11 4 11 3 15 -4 11 -7 -5 -9 0 -6 13 3 11 12 20 20 20 8 0 11 4 8
10 -3 5 3 17 14 27 15 13 17 19 8 25 -9 6 -9 8 0 8 6 0 15 -5 18 -11z m-2113
-34 c4 -5 4 -13 2 -17 -3 -4 2 -8 11 -8 12 0 15 -5 9 -22 -6 -21 -5 -22 11 -8
17 14 17 14 4 -7 l-14 -23 -14 28 c-8 15 -22 38 -32 51 -11 13 -19 28 -19 34
0 9 29 -9 42 -28z m1328 20 c0 -8 -4 -15 -10 -15 -5 0 -7 7 -4 15 4 8 8 15 10
15 2 0 4 -7 4 -15z m-565 -5 c3 -5 1 -10 -4 -10 -6 0 -11 5 -11 10 0 6 2 10 4
10 3 0 8 -4 11 -10z m-661 -18 c2 -4 0 -14 -6 -22 -8 -12 -9 -12 -5 2 3 9 1
19 -6 22 -9 3 -9 5 0 5 6 1 14 -3 17 -7z m1890 -7 c-4 -8 -8 -15 -10 -15 -2 0
-4 7 -4 15 0 8 4 15 10 15 5 0 7 -7 4 -15z m-1823 -29 c14 -13 41 -55 60 -92
19 -38 39 -72 44 -76 6 -4 7 -8 2 -8 -4 0 2 -18 13 -40 22 -43 26 -65 10 -55
-13 8 -13 -8 2 -40 9 -19 9 -28 1 -33 -8 -5 -6 -22 7 -60 23 -64 8 -69 -21 -7
-26 54 -31 58 -55 41 -15 -12 -16 -16 -5 -30 19 -22 -1 -20 -32 4 -21 17 -25
28 -26 75 0 31 -3 60 -6 66 -4 5 -1 18 6 27 11 14 11 15 -1 5 -11 -10 -16 -9
-26 5 -8 11 -25 16 -52 15 -33 -2 -43 3 -56 22 -9 13 -16 30 -15 37 0 10 2 10
6 0 2 -6 10 -9 15 -6 7 4 8 2 4 -4 -4 -7 -3 -12 2 -12 5 0 14 10 19 23 8 17 6
28 -10 52 -16 22 -17 27 -4 16 10 -8 17 -9 17 -3 0 6 -4 13 -9 16 -10 7 -2 56
10 56 5 0 9 -7 9 -16 0 -13 2 -13 13 -2 7 7 16 21 20 31 9 23 27 21 58 -7z
m407 -1 c-3 -3 -9 2 -12 12 -6 14 -5 15 5 6 7 -7 10 -15 7 -18z m928 -3 c-17
-16 -18 -16 -5 5 7 12 15 20 18 17 3 -2 -3 -12 -13 -22z m461 11 c4 -10 16
-27 26 -38 17 -17 19 -17 14 -3 -3 10 -2 20 2 23 12 7 22 -37 12 -49 -10 -13
-7 -93 4 -104 3 -4 13 2 21 12 19 27 18 1 -1 -28 -12 -18 -25 -23 -55 -23 -22
0 -46 -6 -54 -12 -8 -7 -21 -9 -27 -5 -8 5 -9 3 -3 -7 5 -8 7 -43 5 -79 -2
-49 -8 -71 -24 -87 -24 -27 -58 -33 -37 -7 11 12 10 18 -3 32 -16 15 -18 15
-34 -2 -13 -14 -14 -17 -3 -12 9 5 8 2 -2 -7 -10 -8 -18 -21 -18 -29 0 -15
-19 -38 -32 -38 -4 0 1 23 13 52 14 35 17 53 9 58 -8 5 -8 15 0 34 13 35 13
49 -1 40 -14 -8 -3 31 17 64 8 12 12 27 9 32 -3 6 -2 10 3 10 5 0 17 20 27 45
20 55 90 145 111 145 8 0 18 -8 21 -17z m-1067 -85 c32 -57 44 -122 15 -84 -8
11 -15 27 -15 36 0 8 -9 32 -20 53 -11 20 -20 39 -20 42 0 15 13 0 40 -47z
m316 30 c-8 -12 -23 -45 -32 -75 -9 -29 -21 -53 -25 -53 -23 0 7 89 43 127 27
29 34 29 14 1z m-378 -74 c29 -64 14 -62 -25 2 -38 64 -40 68 -14 52 10 -6 28
-31 39 -54z m440 19 c-13 -21 -28 -47 -31 -57 -13 -33 -20 -9 -8 26 12 33 51
82 59 73 3 -2 -6 -22 -20 -42z m-1020 12 c-3 -3 -9 2 -12 12 -6 14 -5 15 5 6
7 -7 10 -15 7 -18z m1575 10 c-3 -9 -8 -14 -10 -11 -3 3 -2 9 2 15 9 16 15 13
8 -4z m-1293 -59 c0 -12 -5 -7 -19 24 -11 24 -11 24 3 6 9 -11 16 -24 16 -30z
m1016 12 c-18 -26 -22 -17 -5 14 6 11 13 17 16 15 3 -3 -2 -16 -11 -29z
m-1269 -20 c-3 -8 -6 -5 -6 6 -1 11 2 17 5 13 3 -3 4 -12 1 -19z m1515 0 c-7
-7 -12 -8 -12 -2 0 6 3 14 7 17 3 4 9 5 12 2 2 -3 -1 -11 -7 -17z m-308 -53
c-9 -14 -18 -25 -21 -25 -5 0 5 18 20 38 17 22 18 13 1 -13z m-894 -5 c6 -11
8 -20 6 -20 -3 0 -10 9 -16 20 -6 11 -8 20 -6 20 3 0 10 -9 16 -20z m270 -13
c0 -5 -4 -5 -10 -2 -5 3 -10 14 -10 23 0 15 2 15 10 2 5 -8 10 -19 10 -23z
m359 7 c-15 -18 -22 -13 -13 10 3 9 10 13 16 10 5 -3 4 -12 -3 -20z m-607 -49
c6 0 17 -10 26 -22 8 -13 10 -23 4 -23 -6 0 -13 9 -17 19 -3 11 -12 18 -19 15
-7 -3 -20 6 -30 20 -23 36 -19 46 5 16 12 -14 26 -25 31 -25z m238 -15 c28
-42 32 -50 20 -50 -16 0 -50 62 -49 90 1 21 2 22 6 5 3 -11 13 -31 23 -45z
m390 38 c0 -28 -41 -98 -47 -81 -3 7 5 26 16 42 12 16 21 36 21 45 0 9 2 16 5
16 3 0 5 -10 5 -22z m244 -12 c-9 -15 -19 -24 -22 -22 -2 3 3 17 12 32 10 14
20 23 23 21 2 -3 -3 -17 -13 -31z m-926 -5 c10 -26 31 -43 44 -35 9 6 9 3 -1
-9 -7 -9 -18 -14 -24 -10 -6 3 -7 1 -3 -6 4 -6 0 -18 -9 -27 -14 -14 -17 -13
-30 20 -8 19 -15 39 -15 44 0 5 -10 14 -22 20 -13 6 -17 11 -10 11 7 1 11 5 8
9 -3 5 9 6 25 4 17 -3 33 -12 37 -21z m1007 19 c-3 -5 0 -10 7 -11 10 0 10 -2
0 -6 -6 -2 -10 -9 -7 -14 4 -5 -1 -6 -9 -3 -10 4 -17 1 -18 -7 -3 -30 -4 -35
-16 -57 -12 -20 -15 -21 -28 -7 -8 8 -12 20 -8 26 4 7 3 9 -3 6 -6 -4 -17 1
-24 10 -12 14 -12 16 1 11 16 -5 33 8 42 34 4 9 19 18 35 21 15 2 29 5 31 6 2
0 0 -3 -3 -9z m-1585 -45 c0 -8 -1 -17 -2 -19 -2 -2 4 -12 12 -22 42 -52 44
-92 3 -44 -10 11 -23 20 -31 20 -7 0 -10 5 -6 12 4 6 3 8 -3 5 -6 -4 -11 3
-11 16 0 12 -1 27 -2 32 -1 6 -2 16 -1 23 2 18 41 -4 41 -23z m769 1 c12 -18
21 -40 21 -47 0 -8 -11 6 -25 30 -14 23 -25 45 -25 47 0 11 10 1 29 -30z m141
-20 c0 -18 -17 8 -24 34 l-7 25 15 -25 c9 -14 15 -29 16 -34z m300 19 c-6 -15
-13 -25 -16 -23 -2 3 1 17 7 32 16 34 23 27 9 -9z m129 -16 c-13 -23 -24 -38
-26 -32 -4 12 37 86 44 80 2 -3 -6 -24 -18 -48z m802 7 c-5 -12 -6 -27 -3 -35
3 -9 0 -11 -8 -6 -9 5 -11 4 -6 -3 4 -7 1 -12 -8 -12 -8 0 -20 -9 -26 -20 -15
-28 -33 -26 -24 3 3 12 11 28 17 35 6 8 12 24 14 35 4 28 34 52 44 35 4 -6 4
-21 0 -32z m-1286 -78 c29 -55 38 -66 49 -55 8 6 11 18 9 24 -3 7 1 13 7 13 9
0 7 6 -5 20 -16 18 -16 20 0 37 17 16 17 16 11 -5 -7 -19 -1 -25 37 -42 72
-32 97 -34 152 -10 28 12 58 29 68 37 9 9 17 11 17 6 0 -6 -7 -16 -15 -23 -9
-7 -12 -16 -8 -19 4 -3 15 -19 23 -35 13 -25 16 -26 19 -10 1 10 9 26 16 34 7
8 16 26 20 39 7 24 65 110 65 97 0 -3 -11 -24 -25 -46 -14 -22 -25 -44 -25
-49 0 -5 -7 -22 -15 -37 -20 -39 -20 -66 0 -40 21 28 30 12 14 -26 -7 -18 -12
-41 -11 -50 2 -10 -1 -18 -7 -18 -6 0 -8 -7 -5 -15 4 -8 2 -15 -3 -15 -6 0
-18 -18 -28 -40 -13 -29 -23 -39 -35 -35 -24 8 -52 -18 -52 -48 0 -15 -4 -24
-9 -21 -5 3 -6 -2 -3 -11 4 -9 -5 -33 -20 -55 -26 -39 -43 -53 -33 -27 3 7 -3
13 -13 13 -12 0 -16 -6 -12 -16 6 -19 -31 27 -47 58 -7 12 -9 28 -5 34 4 6 3
8 -3 5 -6 -4 -10 4 -10 20 0 30 -29 56 -53 48 -11 -4 -21 7 -34 35 -9 22 -21
40 -26 40 -5 0 -9 8 -8 18 0 21 -7 47 -21 86 -14 35 -6 47 14 20 14 -19 14
-19 15 2 0 11 -7 29 -15 40 -8 10 -15 25 -15 32 0 7 -11 30 -25 52 -14 22 -25
43 -25 47 1 15 40 -42 75 -109z m596 75 c-12 -20 -14 -14 -5 12 4 9 9 14 11
11 3 -2 0 -13 -6 -23z m-1513 -31 c23 -23 34 -60 18 -65 -7 -3 -6 -9 4 -22 13
-17 13 -18 0 -10 -26 15 -45 49 -47 83 -2 37 0 39 25 14z m2255 12 c4 -4 -2
-19 -13 -34 -11 -16 -17 -35 -14 -43 3 -10 -3 -20 -18 -27 -19 -10 -21 -10
-10 1 15 16 16 33 2 24 -16 -10 0 45 19 66 18 19 25 22 34 13z m-1003 -8 c0
-3 -4 -8 -10 -11 -5 -3 -10 -1 -10 4 0 6 5 11 10 11 6 0 10 -2 10 -4z m996
-63 c-10 -10 -19 5 -10 18 6 11 8 11 12 0 2 -7 1 -15 -2 -18z m-1549 -43 c23
-29 44 -70 36 -70 -8 1 -74 85 -82 105 -5 12 29 -14 46 -35z m833 -25 c-24
-30 -45 -54 -47 -51 -7 7 52 96 64 96 7 0 13 5 13 12 0 6 3 9 6 5 3 -3 -13
-31 -36 -62z m-1206 -6 c-3 -5 1 -9 9 -9 9 0 14 -11 14 -30 l0 -30 -21 33
c-11 17 -19 35 -18 40 1 4 -3 7 -9 7 -5 0 -7 5 -4 10 5 8 11 7 21 -1 7 -6 11
-15 8 -20z m-243 4 c13 -17 13 -17 -6 -3 -11 8 -22 16 -24 17 -2 2 0 3 6 3 6
0 17 -8 24 -17z m1470 -6 c-10 -9 -11 -8 -5 6 3 10 9 15 12 12 3 -3 0 -11 -7
-18z m369 13 c-8 -5 -12 -10 -7 -10 4 0 0 -12 -9 -26 -13 -19 -19 -22 -25 -12
-13 19 -11 28 6 28 8 0 14 3 14 8 -3 16 2 22 19 22 14 0 15 -2 2 -10z m250 5
c0 -2 -10 -10 -22 -16 -21 -11 -22 -11 -9 4 13 16 31 23 31 12z m-1765 -35
c-3 -5 -1 -10 5 -10 6 0 8 -4 5 -10 -4 -6 -11 -5 -19 3 -15 13 -12 27 5 27 6
0 7 -4 4 -10z m1428 -15 c-5 -16 -16 -19 -26 -9 -7 8 16 33 25 28 4 -3 5 -11
1 -19z m-488 -4 c3 -5 2 -12 -3 -15 -5 -3 -9 1 -9 9 0 17 3 19 12 6z m-445
-52 c0 -10 5 -21 10 -24 17 -10 11 -35 -7 -34 -12 0 -13 2 -5 6 9 3 2 13 -19
29 -18 13 -28 24 -21 24 6 0 9 6 6 14 -4 11 0 13 15 9 12 -3 21 -14 21 -24z
m443 -18 c-10 -22 -23 -41 -30 -41 -15 0 -17 26 -3 35 6 3 10 15 10 25 0 15
26 32 38 24 2 -1 -5 -20 -15 -43z m1041 5 c-3 -9 -10 -16 -15 -16 -6 0 -5 9 1
21 13 24 24 20 14 -5z m-2149 -356 c4 -6 10 -8 14 -5 5 2 19 -7 31 -20 30 -32
21 -32 -27 1 -46 31 -49 34 -35 34 6 0 14 -5 17 -10z m40 -63 c7 -7 6 -8 -2
-3 -7 4 -22 2 -34 -4 -22 -13 -42 -4 -21 9 10 6 9 11 -4 22 -16 12 -17 12 -10
-1 7 -11 5 -11 -9 2 -9 9 -14 21 -11 27 6 10 55 -18 91 -52z m-141 -3 c3 -8 2
-12 -4 -9 -6 3 -10 10 -10 16 0 14 7 11 14 -7z m56 7 c3 -1 -1 -5 -9 -10 -11
-7 -10 -10 5 -15 11 -3 30 -24 44 -45 13 -22 28 -37 32 -35 5 3 7 2 6 -3 -1
-4 5 -22 15 -39 9 -17 14 -34 11 -37 -3 -3 -3 -11 1 -17 6 -9 10 -9 16 1 4 7
11 11 14 7 10 -10 -18 -48 -36 -48 -9 0 -19 9 -22 21 -4 16 -3 18 9 8 8 -6 14
-9 14 -5 0 13 -85 146 -88 138 -2 -6 9 -27 23 -47 14 -21 25 -43 25 -49 0 -6
-6 -2 -12 9 -6 11 -26 38 -43 60 -44 55 -54 74 -25 50 l23 -20 -12 20 c-6 11
-18 29 -26 41 -14 19 -14 21 7 18 13 -1 25 -3 28 -3z m-30 -94 c5 2 7 -3 4
-11 -4 -11 -10 -9 -28 8 -12 11 -20 25 -18 30 3 5 11 0 19 -10 8 -10 18 -18
23 -17z m1939 11 c-8 -7 -21 -21 -29 -30 -15 -17 -16 -17 -16 1 0 11 4 17 8
15 5 -3 11 2 14 10 3 9 13 16 22 16 14 0 14 -2 1 -12z m-1969 -33 c0 -8 14
-29 30 -47 29 -30 41 -56 20 -43 -15 9 -12 -2 6 -19 21 -21 40 -21 23 1 -13
15 -12 15 10 3 24 -12 24 -13 6 -26 -16 -12 -21 -12 -35 1 -9 8 -22 15 -28 15
-7 0 -12 6 -12 14 0 7 -7 19 -15 26 -9 7 -13 20 -10 28 3 8 -2 25 -10 38 -14
21 -14 24 0 24 8 0 15 -7 15 -15z m1974 -10 c-8 -13 -13 -28 -10 -34 9 -14
-25 -67 -54 -84 -21 -13 -28 -13 -43 -2 -18 13 -18 14 5 26 21 11 22 11 9 -4
-7 -10 -10 -17 -7 -17 15 0 46 21 46 31 0 6 -4 7 -10 4 -12 -7 -12 -3 -4 19 3
9 10 14 14 11 5 -3 17 13 27 35 10 22 24 40 31 40 9 0 8 -6 -4 -25z m-374 1
c0 -3 -4 -8 -10 -11 -5 -3 -10 -1 -10 4 0 6 5 11 10 11 6 0 10 -2 10 -4z
m-1510 -43 c0 -13 -3 -13 -15 -3 -8 7 -15 19 -15 27 0 13 3 13 15 3 8 -7 15
-19 15 -27z m1590 14 c0 -8 -3 -7 -9 2 -7 11 -11 9 -21 -9 -6 -12 -14 -19 -17
-16 -4 3 2 15 12 26 18 20 35 18 35 -3z m215 -6 c-7 -23 -25 -29 -25 -8 0 14
21 39 28 33 2 -3 1 -14 -3 -25z m-1557 -26 c-3 -3 -13 7 -23 22 l-17 28 23
-22 c12 -12 20 -25 17 -28z m1172 -5 c-17 -16 -36 -30 -42 -30 -13 0 52 59 65
60 4 0 -6 -13 -23 -30z m285 -17 c14 -14 18 -14 27 -2 8 11 9 10 4 -4 -3 -10
-6 -21 -6 -23 0 -12 -35 -2 -46 14 -26 33 -9 46 21 15z m-1815 -25 c0 -6 -7
-5 -15 2 -8 7 -15 17 -15 22 0 6 7 5 15 -2 8 -7 15 -17 15 -22z m2020 7 c-7
-9 -15 -13 -18 -10 -3 2 1 11 8 20 7 9 15 13 18 10 3 -2 -1 -11 -8 -20z
m-1424 -33 c-4 -3 -14 2 -24 12 -16 18 -16 18 6 6 13 -6 21 -14 18 -18z m834
8 c-24 -15 -36 -11 -14 4 10 8 21 12 24 10 2 -3 -2 -9 -10 -14z m-1370 -55 c7
-9 8 -15 2 -15 -5 0 -12 7 -16 15 -3 8 -4 15 -2 15 2 0 9 -7 16 -15z m1893 0
c-3 -9 -8 -14 -10 -11 -3 3 -2 9 2 15 9 16 15 13 8 -4z m-1133 -35 c0 -5 -2
-10 -4 -10 -3 0 -8 5 -11 10 -3 6 -1 10 4 10 6 0 11 -4 11 -10z m380 6 c0 -3
-4 -8 -10 -11 -5 -3 -10 -1 -10 4 0 6 5 11 10 11 6 0 10 -2 10 -4z m-340 -20
c0 -2 -7 -6 -15 -10 -8 -3 -15 -1 -15 4 0 6 7 10 15 10 8 0 15 -2 15 -4z m310
-6 c0 -5 -2 -10 -4 -10 -3 0 -8 5 -11 10 -3 6 -1 10 4 10 6 0 11 -4 11 -10z
m-247 -65 c31 -31 57 -58 57 -61 0 -7 -88 66 -114 95 -39 43 1 19 57 -34z
m211 34 c-10 -12 -41 -40 -69 -62 l-50 -41 60 62 c33 34 64 62 69 62 5 0 1
-10 -10 -21z m778 -16 c-32 -41 -90 -96 -78 -75 10 17 98 112 103 112 3 0 -9
-17 -25 -37z m-1762 -120 c0 -4 -13 6 -30 22 -16 16 -30 33 -30 39 0 6 14 -4
30 -22 17 -18 30 -36 30 -39z m1770 64 c0 -2 -16 -19 -37 -38 l-36 -34 29 37
c24 32 44 47 44 35z m-1700 -28 c0 -14 -17 -10 -23 5 -4 10 -1 13 9 9 7 -3 14
-9 14 -14z m1584 6 c-4 -8 -11 -15 -16 -15 -6 0 -5 6 2 15 7 8 14 15 16 15 2
0 1 -7 -2 -15z m-1532 -66 c22 -22 38 -42 36 -44 -2 -3 -24 16 -48 40 -24 25
-41 45 -36 45 4 0 26 -18 48 -41z m-131 4 c13 -16 12 -17 -3 -4 -17 13 -22 21
-14 21 2 0 10 -8 17 -17z m1739 13 c0 -2 -8 -10 -17 -17 -16 -13 -17 -12 -4 4
13 16 21 21 21 13z m-1599 -63 c13 -16 12 -17 -3 -4 -17 13 -22 21 -14 21 2 0
10 -8 17 -17z m1385 -59 c-4 -9 -9 -15 -11 -12 -3 3 -3 13 1 22 4 9 9 15 11
12 3 -3 3 -13 -1 -22z"/>
<path d="M500 2416 c0 -2 8 -10 18 -17 15 -13 16 -12 3 4 -13 16 -21 21 -21
13z"/>
<path d="M637 2184 c6 -15 23 -19 23 -5 0 5 -7 11 -14 14 -10 4 -13 1 -9 -9z"/>
<path d="M1952 2184 c-7 -8 -8 -14 -3 -14 10 0 25 19 20 25 -2 1 -10 -3 -17
-11z"/>
<path d="M470 1781 c-18 -34 -12 -58 15 -63 14 -3 30 1 36 8 9 11 8 14 0 14
-7 0 -9 5 -6 10 3 6 1 10 -5 10 -6 0 -8 5 -5 10 3 6 -1 10 -10 10 -9 0 -13 5
-10 10 3 6 4 10 1 10 -3 0 -10 -9 -16 -19z"/>
<path d="M2102 1772 c-12 -11 -19 -22 -15 -26 3 -3 1 -6 -7 -6 -9 0 -10 -3 -1
-14 11 -14 57 -11 67 5 3 5 -1 20 -9 34 -13 26 -13 26 -35 7z"/>
<path d="M1145 1410 c-8 -13 21 -60 36 -60 6 0 1 13 -10 29 -11 15 -18 31 -14
35 3 3 4 6 0 6 -3 0 -9 -5 -12 -10z"/>
<path d="M1435 1387 c-10 -15 -16 -30 -13 -32 8 -9 40 33 36 47 -3 8 -11 2
-23 -15z"/>
<path d="M1336 1223 c-6 -14 -5 -15 5 -6 7 7 10 15 7 18 -3 3 -9 -2 -12 -12z"/>
<path d="M181 1584 c0 -11 3 -14 6 -6 3 7 2 16 -1 19 -3 4 -6 -2 -5 -13z"/>
<path d="M732 2471 c-11 -7 -11 -11 2 -23 11 -11 12 -18 3 -27 -8 -8 -7 -11 7
-11 9 0 15 -4 11 -9 -3 -5 4 -12 15 -16 12 -4 17 -11 13 -18 -4 -7 1 -6 10 2
32 26 10 86 -24 66 -5 -4 -6 1 -3 10 5 11 2 14 -10 9 -12 -5 -15 -2 -10 10 7
18 5 19 -14 7z"/>
<path d="M1854 2463 c5 -11 2 -14 -10 -9 -12 5 -15 2 -10 -9 3 -10 2 -13 -5
-10 -14 9 -39 -14 -39 -35 0 -10 8 -24 17 -31 11 -10 14 -10 9 -1 -4 6 -3 12
2 12 5 0 18 8 30 18 16 14 18 22 10 30 -9 9 -8 12 4 12 24 0 30 27 7 33 -16 4
-19 2 -15 -10z"/>
<path d="M1 1859 c-2 -50 -2 -50 26 -43 15 4 30 8 32 10 10 8 -12 53 -32 67
-23 15 -24 15 -26 -34z"/>
<path d="M2567 1882 c-29 -30 -36 -62 -13 -62 8 0 22 -3 31 -6 14 -6 16 1 14
45 -2 28 -3 51 -4 51 -1 0 -13 -13 -28 -28z"/>
<path d="M102 1610 c0 -14 2 -19 5 -12 2 6 2 18 0 25 -3 6 -5 1 -5 -13z"/>
<path d="M2491 1614 c0 -11 3 -14 6 -6 3 7 2 16 -1 19 -3 4 -6 -2 -5 -13z"/>
<path d="M2550 1524 c0 -13 18 -39 24 -34 2 3 -2 14 -10 24 -8 11 -14 16 -14
10z"/>
<path d="M25 1500 c-3 -5 -1 -10 4 -10 6 0 11 5 11 10 0 6 -2 10 -4 10 -3 0
-8 -4 -11 -10z"/>
<path d="M820 1030 c0 -8 5 -22 10 -30 9 -13 10 -13 10 0 0 8 -5 22 -10 30 -9
13 -10 13 -10 0z"/>
<path d="M1771 1033 c-1 -6 -4 -20 -7 -30 -5 -17 -5 -17 6 0 6 10 9 23 6 30
-3 9 -5 9 -5 0z"/>
<path d="M872 1010 c-6 -11 -12 -22 -12 -25 0 -11 20 6 30 26 14 25 -2 25 -18
-1z"/>
<path d="M1000 1010 c6 -11 13 -20 16 -20 2 0 0 9 -6 20 -6 11 -13 20 -16 20
-2 0 0 -9 6 -20z"/>
<path d="M1710 1011 c11 -22 30 -37 30 -24 -1 11 -26 43 -34 43 -4 0 -2 -9 4
-19z"/>
<path d="M1585 999 c-4 -6 -5 -12 -2 -15 2 -3 7 2 10 11 7 17 1 20 -8 4z"/>
<path d="M4 955 c9 -50 82 -295 88 -295 3 0 -3 33 -14 73 -24 86 -80 251 -74
222z"/>
<path d="M540 945 c0 -2 10 -10 23 -16 20 -11 21 -11 8 4 -13 16 -31 23 -31
12z"/>
<path d="M2586 939 c-40 -118 -63 -210 -51 -197 8 7 64 202 60 207 -3 2 -7 -2
-9 -10z"/>
<path d="M856 932 c-3 -5 9 -24 25 -43 26 -28 28 -29 15 -7 -23 40 -20 45 12
17 26 -23 26 -23 -2 9 -31 33 -41 38 -50 24z"/>
<path d="M1694 908 c-23 -27 -24 -29 -3 -10 30 26 49 29 27 5 -30 -35 -29 -47
1 -15 18 18 29 37 26 42 -10 16 -20 12 -51 -22z"/>
<path d="M1290 890 c0 -5 5 -10 10 -10 6 0 10 5 10 10 0 6 -4 10 -10 10 -5 0
-10 -4 -10 -10z"/>
<path d="M680 876 c0 -2 7 -9 15 -16 9 -7 15 -8 15 -2 0 5 -7 12 -15 16 -8 3
-15 4 -15 2z"/>
<path d="M1223 865 c-3 -9 -3 -18 -1 -21 3 -3 8 4 11 16 6 23 -1 27 -10 5z"/>
<path d="M1166 842 l-19 -27 24 22 c12 12 21 24 18 27 -2 2 -13 -8 -23 -22z"/>
<path d="M1371 854 c0 -11 3 -14 6 -6 3 7 2 16 -1 19 -3 4 -6 -2 -5 -13z"/>
<path d="M1410 862 c0 -5 10 -17 22 -28 l21 -19 -18 28 c-18 28 -25 33 -25 19z"/>
<path d="M2513 855 c-3 -9 -3 -18 -1 -21 3 -3 8 4 11 16 6 23 -1 27 -10 5z"/>
<path d="M80 844 c0 -8 5 -12 10 -9 6 3 10 10 10 16 0 5 -4 9 -10 9 -5 0 -10
-7 -10 -16z"/>
<path d="M1257 854 c-4 -4 -7 -14 -7 -23 0 -11 3 -12 11 -4 6 6 10 16 7 23 -2
6 -7 8 -11 4z"/>
<path d="M1334 849 c-3 -6 0 -18 9 -26 13 -13 14 -12 10 11 -6 29 -9 31 -19
15z"/>
<path d="M1188 819 c-19 -20 -24 -54 -10 -63 12 -7 45 65 35 74 -4 4 -16 -1
-25 -11z"/>
<path d="M1385 830 c-3 -5 3 -25 13 -44 15 -28 22 -33 32 -23 10 10 10 7 0
-13 l-13 -25 22 19 c19 17 20 21 6 28 -8 5 -15 16 -15 24 0 8 -7 17 -15 20 -8
4 -12 10 -9 15 3 5 1 9 -5 9 -5 0 -12 -4 -16 -10z"/>
<path d="M100 800 c0 -20 5 -30 14 -30 12 0 13 6 5 30 -6 17 -13 30 -15 30 -2
0 -4 -13 -4 -30z"/>
<path d="M2489 822 c-2 -21 -4 -27 -12 -39 -5 -8 -3 -13 6 -13 18 0 30 41 17
54 -7 7 -10 6 -11 -2z"/>
<path d="M820 796 c0 -2 8 -10 18 -17 15 -13 16 -12 3 4 -13 16 -21 21 -21 13z"/>
<path d="M1210 758 c-10 -34 -9 -42 6 -52 9 -7 14 -18 10 -24 -10 -16 72 -30
116 -19 21 5 37 12 36 16 -2 20 4 31 16 31 13 0 13 6 0 44 -11 33 -20 44 -34
43 -18 -1 -18 -2 1 -37 l21 -35 -21 23 c-11 13 -25 20 -31 17 -7 -4 -10 0 -8
11 4 27 -32 31 -39 5 -3 -11 -9 -18 -14 -15 -5 3 -19 -5 -30 -18 l-21 -23 21
35 c20 35 20 36 1 37 -15 1 -22 -8 -30 -39z m100 -18 c0 -5 -4 -10 -10 -10 -5
0 -10 5 -10 10 0 6 5 10 10 10 6 0 10 -4 10 -10z"/>
<path d="M925 770 c3 -5 8 -10 11 -10 2 0 4 5 4 10 0 6 -5 10 -11 10 -5 0 -7
-4 -4 -10z"/>
<path d="M1660 769 c0 -5 5 -7 10 -4 6 3 10 8 10 11 0 2 -4 4 -10 4 -5 0 -10
-5 -10 -11z"/>
<path d="M1155 750 c10 -11 20 -20 22 -20 2 0 -1 9 -7 20 -6 11 -16 20 -22 20
-6 0 -3 -9 7 -20z"/>
<path d="M535 750 c3 -5 8 -10 11 -10 2 0 4 5 4 10 0 6 -5 10 -11 10 -5 0 -7
-4 -4 -10z"/>
<path d="M2050 750 c0 -5 5 -10 10 -10 6 0 10 5 10 10 0 6 -4 10 -10 10 -5 0
-10 -4 -10 -10z"/>
<path d="M2516 715 c-3 -9 -6 -26 -5 -38 1 -16 4 -12 10 12 10 34 6 55 -5 26z"/>
<path d="M905 670 c-3 -5 -1 -10 4 -10 6 0 11 5 11 10 0 6 -2 10 -4 10 -3 0
-8 -4 -11 -10z"/>
<path d="M460 651 c0 -6 4 -13 10 -16 6 -3 7 1 4 9 -7 18 -14 21 -14 7z"/>
<path d="M745 620 c9 -18 12 -29 6 -26 -15 9 -14 4 4 -30 8 -16 15 -39 15 -51
0 -13 5 -23 10 -23 6 0 8 11 4 27 l-7 26 54 -6 54 -6 -35 29 c-19 16 -55 44
-78 61 l-44 32 17 -33z"/>
<path d="M1201 640 c-19 -11 5 -23 25 -12 14 8 14 10 2 15 -8 3 -21 2 -27 -3z"/>
<path d="M1860 642 c0 -7 -6 -12 -12 -12 -7 0 -33 -18 -58 -40 -25 -22 -48
-40 -51 -40 -4 0 -9 -7 -13 -15 -4 -13 -2 -13 14 -5 10 5 32 10 49 10 27 0 31
-4 32 -27 1 -23 3 -21 10 11 5 22 14 45 20 53 9 10 8 13 -1 13 -9 0 -7 8 5 26
9 14 14 28 11 32 -3 3 -6 0 -6 -6z m-27 -77 c-3 -9 -8 -14 -10 -11 -3 3 -2 9
2 15 9 16 15 13 8 -4z"/>
<path d="M800 615 c13 -14 28 -25 33 -25 6 0 0 11 -13 25 -13 14 -28 25 -33
25 -6 0 0 -11 13 -25z"/>
<path d="M1783 615 c-15 -13 -23 -25 -17 -25 6 0 21 11 34 25 30 32 19 32 -17
0z"/>
<path d="M93 615 c-3 -9 -3 -18 -1 -21 3 -3 8 4 11 16 6 23 -1 27 -10 5z"/>
<path d="M885 620 c-3 -5 -1 -10 4 -10 6 0 11 5 11 10 0 6 -2 10 -4 10 -3 0
-8 -4 -11 -10z"/>
<path d="M967 546 c-4 -10 -1 -13 9 -9 10 3 12 0 9 -10 -4 -8 1 -17 11 -21 28
-11 29 3 2 30 -21 21 -26 23 -31 10z"/>
<path d="M1620 551 c0 -6 4 -13 10 -16 6 -3 7 1 4 9 -7 18 -14 21 -14 7z"/>
<path d="M920 533 c0 -5 14 -22 31 -39 23 -21 29 -23 21 -9 -13 25 -52 62 -52
48z"/>
<path d="M1592 520 c-13 -21 -6 -25 18 -10 10 6 12 12 5 19 -7 7 -14 4 -23 -9z"/>
<path d="M1653 517 c-35 -39 -37 -53 -2 -20 18 18 31 35 28 38 -3 3 -15 -5
-26 -18z"/>
<path d="M736 515 c-9 -26 -7 -32 5 -12 6 10 9 21 6 23 -2 3 -7 -2 -11 -11z"/>
<path d="M1052 500 c7 -11 17 -20 22 -20 5 0 1 9 -9 20 -10 11 -20 20 -22 20
-2 0 2 -9 9 -20z"/>
<path d="M1540 505 c-7 -9 -10 -18 -7 -21 3 -3 10 4 17 15 13 25 8 27 -10 6z"/>
<path d="M1006 470 c12 -12 29 -20 39 -18 13 2 6 8 -21 21 l-39 18 21 -21z"/>
<path d="M1375 480 c-3 -5 -1 -10 4 -10 6 0 11 5 11 10 0 6 -2 10 -4 10 -3 0
-8 -4 -11 -10z"/>
<path d="M1570 470 c-28 -15 -31 -19 -14 -20 11 0 29 9 39 20 22 24 20 24 -25
0z"/>
<path d="M930 469 c0 -8 7 -23 15 -33 13 -17 13 -22 -3 -40 -17 -21 -17 -21 6
-2 12 11 22 15 22 10 0 -5 5 -1 11 9 6 10 9 19 7 20 -1 1 -15 13 -30 26 -19
17 -28 20 -28 10z"/>
<path d="M1645 460 c-10 -11 -22 -17 -26 -14 -5 3 -9 0 -9 -6 0 -7 -7 -10 -15
-7 -8 4 -17 2 -20 -3 -6 -10 7 -14 33 -11 6 1 12 -4 12 -11 1 -18 50 39 50 58
0 19 -3 18 -25 -6z"/>
<path d="M101 440 c-1 -19 11 -57 24 -85 14 -27 22 -41 19 -30 -4 11 -15 49
-25 85 -15 55 -18 59 -18 30z"/>
<path d="M2488 431 c-4 -25 -20 -72 -37 -105 -17 -34 -24 -52 -15 -41 36 46
65 117 62 153 l-3 37 -7 -44z"/>
<path d="M1005 429 c-9 -14 -2 -20 14 -10 8 6 9 11 3 15 -6 3 -14 1 -17 -5z"/>
<path d="M1250 420 c-12 -8 -10 -10 8 -10 13 0 20 4 17 10 -7 12 -6 12 -25 0z"/>
<path d="M1325 420 c-4 -6 3 -10 14 -10 25 0 27 6 6 13 -8 4 -17 2 -20 -3z"/>
<path d="M1650 401 c0 -6 4 -13 10 -16 6 -3 7 1 4 9 -7 18 -14 21 -14 7z"/>
<path d="M1216 364 c-23 -23 -20 -30 4 -9 11 10 20 20 20 22 0 7 -9 2 -24 -13z"/>
<path d="M1370 371 c0 -5 7 -15 17 -22 15 -13 15 -12 4 9 -12 23 -21 28 -21
13z"/>
<path d="M960 320 c4 -23 11 -44 15 -48 5 -4 5 1 2 11 -4 10 -7 32 -7 48 0 16
-4 29 -9 29 -4 0 -5 -18 -1 -40z"/>
<path d="M1637 353 c-4 -3 -7 -18 -6 -32 1 -26 1 -25 10 3 9 31 7 41 -4 29z"/>
<path d="M160 291 c0 -6 4 -13 10 -16 6 -3 7 1 4 9 -7 18 -14 21 -14 7z"/>
<path d="M1440 293 c0 -5 10 -18 23 -29 l22 -19 -20 25 c-11 14 -21 27 -22 29
-2 2 -3 0 -3 -6z"/>
<path d="M1812 280 c0 -14 2 -19 5 -12 2 6 2 18 0 25 -3 6 -5 1 -5 -13z"/>
<path d="M1173 268 c-8 -18 -7 -28 3 -43 8 -10 14 -33 15 -49 0 -17 4 -40 9
-51 10 -23 1 120 -9 148 -6 17 -8 16 -18 -5z"/>
<path d="M1406 249 c-12 -98 -14 -141 -5 -128 5 8 9 28 9 46 0 17 8 45 17 62
17 28 17 31 1 47 -15 16 -17 14 -22 -27z"/>
<path d="M743 249 c44 -36 91 -115 55 -93 -7 4 -8 3 -4 -5 4 -6 11 -9 15 -7 4
3 29 -18 56 -45 27 -27 55 -47 62 -45 7 3 16 -1 20 -8 21 -33 58 -46 136 -46
71 0 78 2 67 15 -10 12 -15 13 -20 4 -5 -7 -10 -8 -14 -1 -3 6 -2 14 4 17 7 4
3 21 -11 45 -12 22 -26 37 -31 34 -4 -3 -8 -1 -8 5 0 5 -3 18 -6 28 -5 15 -4
15 5 3 15 -21 14 -5 -4 36 -14 33 -50 73 -68 74 -4 0 -4 -8 1 -17 7 -14 9
-109 3 -133 -1 -3 -11 10 -22 28 -12 17 -26 32 -32 32 -8 0 -7 4 2 9 8 6 10
14 5 22 -5 8 -9 21 -9 29 0 8 -9 15 -20 15 -14 0 -19 -6 -17 -17 2 -10 -2 -18
-8 -18 -5 0 -10 5 -10 10 0 6 -7 10 -16 10 -10 0 -14 6 -11 14 4 10 1 13 -7
10 -7 -3 -22 3 -32 13 -16 16 -17 17 -11 1 4 -12 0 -21 -14 -28 -17 -9 -23 -7
-40 14 -11 14 -28 26 -37 26 -11 0 -4 -11 21 -31z m143 -86 c-11 -11 -17 4 -9
23 7 18 8 18 11 1 2 -10 1 -21 -2 -24z m74 -78 c-1 -5 -14 5 -30 23 -17 18
-30 37 -30 44 0 6 13 -5 30 -23 16 -19 30 -38 30 -44z m149 -25 c11 -24 11
-24 -3 -6 -9 11 -16 24 -16 30 0 12 5 7 19 -24z"/>
<path d="M1773 266 c-27 -26 -43 -36 -54 -36 -7 0 -10 -3 -6 -6 8 -8 -18 -34
-35 -34 -9 0 -10 2 -1 8 6 4 13 16 15 27 4 24 -27 33 -35 10 -4 -8 -2 -15 4
-15 6 0 3 -8 -7 -17 -9 -9 -12 -19 -7 -20 6 -2 -1 -17 -15 -33 -33 -38 -45
-21 -21 28 11 20 19 45 18 57 0 16 -3 15 -13 -9 -9 -19 -15 -24 -18 -15 -3 8
-1 22 4 32 11 22 -1 21 -28 -1 -30 -26 -46 -60 -38 -84 4 -15 3 -18 -7 -13 -9
6 -11 3 -6 -9 9 -22 -41 -135 -52 -118 -6 10 -10 10 -21 -3 -11 -13 -3 -15 68
-15 64 0 88 4 116 21 20 12 36 23 36 26 0 2 -5 1 -12 -3 -7 -4 -8 -3 -4 4 4 6
12 9 19 6 17 -6 92 69 129 128 16 26 44 59 61 73 23 17 27 25 15 25 -9 0 -25
-10 -35 -23 -21 -26 -50 -25 -55 3 -2 14 -6 15 -15 6z m-43 -98 c0 -19 -16 -5
-17 14 -2 18 0 20 7 8 5 -8 10 -18 10 -22z m-30 -17 c0 -13 -51 -73 -58 -67
-2 3 8 21 24 40 32 39 34 40 34 27z"/>
<path d="M685 250 c-18 -7 -18 -9 -3 -15 23 -9 39 -3 30 11 -4 7 -15 8 -27 4z"/>
<path d="M1886 244 c-3 -9 2 -14 14 -14 26 0 34 17 11 23 -12 3 -22 -1 -25 -9z"/>
<path d="M470 232 c6 -13 14 -21 18 -18 3 4 -2 14 -12 24 -18 16 -18 16 -6 -6z"/>
<path d="M976 220 c3 -19 10 -39 15 -45 14 -14 10 16 -6 50 l-15 30 6 -35z"/>
<path d="M2120 230 c-6 -11 -8 -20 -6 -20 3 0 10 9 16 20 6 11 8 20 6 20 -3 0
-10 -9 -16 -20z"/>
<path d="M1133 202 c-27 -4 -32 -42 -8 -62 9 -7 14 -19 11 -26 -3 -7 -1 -16 4
-19 16 -10 28 37 21 75 -5 29 -10 34 -28 32z"/>
<path d="M1442 154 c2 -30 7 -53 13 -52 5 2 9 9 7 16 -2 7 4 15 13 18 8 4 15
18 15 34 0 22 -5 29 -25 33 -25 4 -26 3 -23 -49z"/>
<path d="M252 130 c4 -12 120 -132 124 -128 1 2 -27 33 -62 70 -36 37 -64 63
-62 58z"/>
<path d="M2280 64 c-36 -37 -60 -65 -54 -63 11 4 130 129 122 129 -2 0 -33
-30 -68 -66z"/>
<path d="M1485 70 c-9 -16 -13 -30 -11 -30 3 0 12 14 21 30 9 17 13 30 11 30
-3 0 -12 -13 -21 -30z"/>
<path d="M1160 71 c-12 -24 6 -71 27 -71 11 0 11 7 -2 36 -8 20 -12 40 -9 45
3 5 3 9 0 9 -3 0 -10 -9 -16 -19z"/>
<path d="M1423 73 c-3 -39 -8 -58 -18 -65 -6 -5 -3 -8 6 -8 9 0 22 14 29 31
11 25 11 33 -1 45 -13 12 -15 12 -16 -3z"/>
</g>
</svg>
